<?xml version="1.0" standalone="no"?>
<!DOCTYPE svg PUBLIC "-//W3C//DTD SVG 20010904//EN"
 "http://www.w3.org/TR/2001/REC-SVG-20010904/DTD/svg10.dtd">
<svg version="1.0" xmlns="http://www.w3.org/2000/svg"
 width="570.000000pt" height="377.000000pt" viewBox="0 0 570.000000 377.000000"
 preserveAspectRatio="xMidYMid meet">

<g transform="translate(0.000000,377.000000) scale(0.100000,-0.100000)"
fill="#ebedf0" stroke="none">
<path d="M0 2091 l0 -1668 25 5 c15 2 39 -4 61 -17 55 -33 66 -23 58 48 l-6
60 33 14 c19 7 60 16 92 20 l58 6 26 -42 c14 -23 34 -54 45 -69 10 -15 18 -43
18 -62 0 -23 7 -42 21 -55 12 -11 35 -41 53 -67 24 -37 39 -50 65 -55 19 -4
38 -14 43 -22 16 -30 74 -57 120 -57 28 0 50 -6 58 -15 17 -21 57 -19 96 6 47
29 160 37 204 15 41 -20 54 -20 47 -1 -4 8 -2 17 3 20 6 4 7 17 4 30 -9 36 13
89 44 107 34 20 157 58 188 58 26 0 64 45 90 106 9 21 37 63 62 92 l45 54 -27
51 c-14 29 -26 60 -26 70 0 33 -20 57 -68 81 -26 13 -65 44 -87 68 -22 23 -53
52 -69 63 -23 17 -28 26 -23 45 11 41 74 100 107 100 16 0 35 6 42 14 8 7 41
20 74 27 32 7 62 17 66 23 4 7 14 6 30 -2 13 -6 43 -16 68 -22 119 -30 120
-31 125 -162 2 -67 8 -87 45 -160 39 -77 41 -87 36 -140 l-7 -56 56 -32 c31
-18 62 -41 68 -52 7 -10 27 -26 45 -35 18 -9 47 -31 65 -50 27 -29 33 -43 38
-101 3 -39 17 -94 33 -130 25 -57 26 -67 17 -117 -6 -30 -8 -62 -5 -70 5 -13
214 -15 1775 -15 l1769 0 0 410 0 410 -37 2 c-66 3 -280 -9 -300 -17 -19 -6
-16 12 6 43 10 15 25 56 32 91 11 59 11 65 -6 77 -15 11 -23 11 -52 -1 -19 -8
-46 -24 -60 -35 -14 -11 -29 -20 -33 -20 -4 0 -28 16 -54 36 -41 31 -55 36
-114 39 l-67 3 -8 35 c-7 29 -5 39 12 56 25 25 27 55 5 73 -49 41 -54 49 -54
92 0 59 -8 76 -35 76 -54 0 -90 27 -120 89 -16 33 -36 63 -44 65 -9 2 -46 4
-83 4 -53 0 -70 -3 -84 -19 -9 -10 -27 -19 -40 -19 -12 0 -36 -14 -53 -31 -29
-28 -33 -30 -64 -18 -31 11 -40 9 -121 -31 -55 -26 -91 -39 -97 -33 -12 12 -1
43 15 43 24 0 94 61 101 87 5 21 1 31 -22 48 -25 20 -26 25 -15 49 10 22 16
25 39 20 45 -11 62 -32 65 -82 4 -59 23 -71 72 -48 20 9 40 25 46 36 14 26 -1
91 -25 104 -11 6 -22 14 -25 17 -6 8 -53 24 -62 21 -5 -1 -8 2 -8 8 0 21 -67
22 -107 1 -47 -23 -67 -64 -78 -154 -5 -42 -13 -62 -27 -70 -10 -7 -28 -26
-39 -44 -16 -25 -18 -37 -10 -52 17 -30 1 -32 -64 -5 -70 28 -71 28 -78 10 -4
-9 -1 -13 7 -10 7 3 39 -11 71 -31 40 -24 61 -31 66 -24 4 8 23 10 50 6 35 -5
48 -2 64 13 35 33 70 30 79 -6 11 -44 -18 -67 -76 -60 -25 4 -49 2 -52 -3 -3
-5 10 -21 30 -36 l37 -28 -23 -17 c-20 -15 -28 -15 -82 -3 -32 7 -71 12 -85
11 -22 -2 -31 4 -50 37 -12 22 -23 34 -23 27 0 -27 -20 1 -31 44 -8 32 -21 51
-44 67 -17 12 -30 27 -28 32 2 6 -10 21 -27 33 -16 13 -30 27 -30 33 0 6 14
-1 31 -15 28 -24 49 -33 49 -21 0 17 -26 56 -41 60 -9 3 -38 25 -63 49 l-46
43 -9 -31 c-5 -17 -10 -24 -10 -15 -1 24 -41 109 -50 109 -5 0 -16 -11 -25
-25 -21 -31 -36 -31 -70 0 -23 21 -26 32 -26 90 0 61 -1 65 -22 65 -15 0 -29
-11 -40 -30 -17 -29 -17 -32 8 -78 14 -26 36 -57 49 -70 14 -13 25 -29 25 -37
0 -22 39 -53 60 -48 21 6 50 -31 50 -62 0 -29 -19 -45 -55 -45 -16 -1 -41 -7
-55 -14 -17 -10 -30 -11 -42 -5 -12 6 -18 6 -18 -1 0 -5 -4 -10 -10 -10 -5 0
-10 6 -10 13 0 6 -11 12 -24 12 -13 0 -22 -3 -19 -7 2 -5 -1 -8 -8 -8 -6 0
-17 -8 -24 -17 -12 -15 -16 -16 -41 -4 -65 31 -73 33 -88 28 -9 -4 -16 -2 -16
3 0 6 -13 10 -29 10 -38 0 -93 31 -86 49 4 10 -3 12 -32 6 -21 -4 -42 -7 -48
-7 -5 1 -25 3 -43 5 -27 3 -34 -1 -38 -20 -6 -22 -10 -23 -50 -17 -33 5 -47 2
-60 -10 -10 -10 -26 -15 -42 -12 -15 2 -27 5 -27 6 0 10 -53 5 -65 -5 -11 -10
-38 -12 -95 -9 -110 6 -132 9 -149 23 -10 8 -27 10 -47 6 -19 -4 -41 -2 -55 6
-19 10 -27 10 -36 1 -15 -15 -104 -16 -113 -2 -3 6 -15 10 -26 10 -12 0 -29
10 -39 23 l-19 22 -24 -27 c-13 -16 -33 -28 -43 -28 -16 0 -17 -2 -4 -10 12
-7 12 -12 3 -21 -15 -15 -47 7 -36 25 3 6 3 8 -1 4 -4 -3 -23 0 -42 8 -21 9
-48 12 -72 8 -52 -8 -114 17 -105 43 3 10 10 24 16 30 6 9 4 15 -7 19 -17 6
-100 1 -146 -10 -44 -10 -105 -9 -126 2 -14 7 -24 8 -31 1 -5 -5 -23 -10 -39
-10 -85 -1 -107 9 -83 37 10 13 10 17 -2 25 -8 5 -22 9 -31 9 -9 0 -23 3 -31
6 -8 3 -24 -4 -35 -16 -16 -17 -27 -21 -51 -15 -38 8 -38 12 -5 50 25 29 27
50 9 96 -3 9 8 33 29 60 30 40 38 45 65 41 27 -4 31 -1 32 19 0 22 1 23 9 4
11 -26 12 -37 2 -31 -5 3 -15 -3 -24 -13 -9 -10 -22 -21 -29 -23 -12 -5 -12
-9 -1 -27 10 -18 11 -26 1 -37 -6 -8 -9 -18 -5 -22 4 -4 13 0 19 9 7 9 18 14
25 12 14 -5 16 13 2 22 -5 3 -10 16 -10 28 0 24 62 73 78 63 6 -3 15 1 22 10
9 10 22 13 41 9 16 -4 30 -1 34 5 11 17 45 -24 45 -55 0 -22 -4 -25 -38 -25
-45 0 -67 -15 -76 -52 -7 -30 3 -33 54 -19 17 5 35 1 56 -11 31 -18 64 -16 64
4 0 5 -9 12 -20 15 -34 9 -37 51 -6 79 29 27 34 65 11 84 -10 9 -15 9 -15 1 0
-6 -4 -11 -10 -11 -5 0 -10 7 -10 15 0 11 -12 15 -50 15 -31 0 -64 8 -87 20
-40 21 -62 19 -104 -12 -17 -13 -42 -19 -80 -19 -69 -1 -89 -18 -89 -74 0 -35
-7 -52 -40 -91 -22 -27 -40 -54 -40 -61 0 -17 -26 -17 -33 0 -3 8 1 27 8 43
16 34 29 115 27 162 -2 38 -38 96 -56 89 -20 -8 -56 12 -56 31 0 52 82 52 147
1 32 -26 42 -29 78 -23 50 8 126 45 105 51 -42 12 -178 79 -199 99 -12 11 -12
16 -1 29 17 21 53 12 93 -21 31 -26 73 -32 80 -11 3 9 7 9 20 -2 13 -10 17
-10 17 -1 0 10 3 10 15 0 13 -10 19 -10 33 3 12 11 22 13 34 6 12 -6 24 -6 37
0 10 6 21 8 25 6 3 -3 1 1 -4 7 -6 7 -46 15 -90 19 -62 4 -93 12 -139 36 -50
26 -62 29 -71 17 -8 -8 -22 -11 -42 -7 -57 11 -123 -20 -212 -101 -21 -19 -44
-32 -50 -30 -7 3 -19 -2 -26 -11 -11 -13 -7 -17 23 -30 47 -19 51 -37 16 -71
-38 -36 -37 -56 6 -76 28 -13 37 -13 46 -2 20 24 39 4 39 -40 0 -50 -7 -60
-27 -40 -9 8 -18 12 -22 9 -3 -4 3 -13 13 -21 21 -15 28 -43 20 -86 -4 -22
-11 -28 -30 -28 -17 0 -24 6 -24 20 0 10 -9 24 -21 30 -22 12 -77 11 -95 -2
-6 -4 -21 -6 -33 -3 -13 2 -40 -4 -60 -14 -62 -31 -80 -35 -75 -13 5 16 0 18
-30 14 -20 -2 -43 1 -51 8 -8 7 -22 10 -30 6 -8 -3 -15 -1 -15 4 0 6 -11 10
-25 10 -19 0 -29 9 -42 35 -15 31 -15 40 -1 105 12 51 13 81 6 108 -21 81 -21
82 -5 82 15 0 38 -48 41 -87 1 -12 12 -33 25 -46 14 -16 19 -27 12 -32 -24
-14 -7 -23 62 -30 96 -10 115 -10 134 6 9 8 28 14 42 14 19 0 27 6 29 23 2 12
9 22 16 22 51 0 53 139 2 140 -4 0 -6 -6 -3 -14 8 -21 -8 -71 -23 -71 -7 0
-16 -9 -21 -20 -6 -15 -8 -12 -8 17 -1 34 -4 38 -38 47 -21 6 -49 11 -63 11
-33 1 -104 27 -108 40 -2 5 -18 10 -35 10 -22 0 -36 7 -46 22 -12 19 -14 20
-23 5 -11 -20 -44 -23 -51 -4 -7 21 5 48 19 43 17 -7 18 13 2 51 -14 36 -12
54 18 122 18 39 27 52 33 42 5 -8 11 -9 15 -3 3 6 1 12 -4 14 -14 4 14 71 53
125 45 63 168 154 204 151 31 -2 53 7 53 23 0 6 -10 8 -22 4 -19 -5 -18 -1 9
21 31 25 32 27 16 50 -21 33 -7 45 16 15 l18 -24 31 21 c16 12 37 22 45 22 8
0 17 9 20 19 2 10 15 24 27 31 18 10 21 10 14 -2 -26 -41 -11 -45 91 -26 73
14 81 33 14 33 -24 1 -52 6 -63 11 -18 11 -17 12 5 28 27 18 43 21 33 5 -4 -8
15 -10 67 -6 40 3 80 0 89 -5 24 -15 96 8 132 43 17 16 39 29 49 29 23 0 69
21 69 31 0 8 82 34 190 61 51 12 52 13 25 19 -51 11 -187 10 -180 -1 3 -6 -5
-10 -19 -10 -14 0 -27 4 -30 9 -8 12 28 21 82 21 29 0 41 4 36 11 -5 8 11 9
55 4 58 -7 61 -6 61 14 0 12 6 21 14 21 21 0 31 -21 15 -31 -11 -7 -11 -9 3
-9 20 0 68 21 68 30 0 3 57 7 128 9 83 1 124 -1 117 -8 -5 -5 -23 -11 -40 -13
-26 -4 -27 -5 -11 -13 11 -5 26 -4 36 3 10 6 42 14 72 17 29 3 47 2 40 -1 -6
-3 -10 -10 -6 -15 3 -5 -11 -9 -32 -9 -33 0 -35 -2 -23 -17 29 -34 148 -60
163 -34 3 4 40 6 82 3 56 -3 75 -2 70 7 -4 6 -26 11 -48 11 -22 0 -59 5 -81
12 -34 10 -41 10 -52 -5 -20 -28 -59 -20 -48 9 3 9 21 14 52 14 33 0 42 3 31
10 -12 8 -11 10 7 10 16 0 21 -4 17 -15 -5 -12 4 -15 47 -15 50 1 52 2 30 14
l-24 13 34 6 c62 11 161 1 171 -17 5 -9 15 -16 22 -16 18 0 48 -35 39 -45 -5
-4 3 -5 17 -2 14 4 28 7 32 7 4 0 5 7 2 15 -4 9 -19 15 -35 15 -19 0 -29 5
-29 15 0 8 -9 15 -20 15 -11 0 -20 5 -20 10 0 16 47 12 54 -5 6 -17 51 -21 61
-5 3 5 20 2 42 -8 24 -11 38 -13 40 -6 5 15 66 4 80 -15 6 -9 9 -19 7 -22 -2
-4 3 -9 11 -13 8 -3 15 -12 15 -20 0 -17 24 -28 46 -19 12 5 9 10 -17 26 -18
12 -27 23 -20 25 9 3 9 7 0 18 -9 11 -8 14 5 14 26 0 56 -19 56 -35 0 -7 12
-23 27 -35 22 -17 25 -23 13 -30 -12 -8 -13 -13 -2 -30 11 -18 10 -20 -8 -20
-14 0 -20 -7 -20 -24 0 -27 43 -48 79 -39 27 7 27 33 1 40 -22 6 -26 18 -10
28 6 4 8 15 5 26 -5 15 -1 19 19 19 36 0 33 17 -4 25 -16 4 -30 11 -30 16 0 4
-14 16 -31 24 -17 9 -28 19 -25 22 9 9 67 -15 122 -52 58 -38 145 -58 158 -36
5 8 0 10 -16 7 -30 -7 -94 8 -91 21 1 6 -16 15 -37 22 -59 18 -62 34 -4 26 63
-8 257 -43 309 -55 22 -5 60 -12 85 -15 25 -4 59 -11 75 -15 17 -5 71 -19 120
-30 50 -12 115 -27 145 -35 30 -8 87 -22 125 -31 86 -19 314 -95 391 -129 31
-14 62 -25 68 -25 7 0 22 -9 33 -19 11 -11 40 -25 64 -31 24 -6 60 -22 79 -34
19 -12 43 -26 54 -29 12 -5 17 -14 13 -26 -3 -12 1 -22 10 -25 11 -4 13 -2 9
9 -12 32 48 12 95 -32 15 -13 40 -32 58 -41 71 -39 217 -136 276 -185 35 -29
75 -60 90 -70 14 -10 24 -24 22 -30 -2 -6 18 -22 45 -35 l47 -24 66 33 c133
65 285 199 285 249 0 29 -40 41 -124 39 -39 -1 -111 2 -161 6 -49 5 -107 9
-127 10 -54 3 -76 23 -94 85 -16 55 -18 74 -13 120 2 14 0 35 -5 48 -6 17 -4
22 9 22 9 0 13 5 10 10 -3 6 0 10 9 10 8 0 16 4 18 9 3 9 29 14 59 12 9 0 26
-10 39 -21 16 -14 37 -20 69 -20 46 0 225 -41 259 -59 9 -5 34 -13 55 -19 l37
-10 0 564 0 564 -2850 0 -2850 0 0 -1669z m1509 912 c13 -3 54 0 91 7 37 7 73
11 81 8 18 -6 -157 -38 -207 -38 -22 0 -74 -11 -117 -25 -91 -29 -138 -33 -57
-4 30 10 72 28 92 40 21 11 43 17 50 13 7 -5 8 -3 3 6 -6 10 -3 11 16 6 13 -4
35 -10 48 -13z m-72 -64 c-21 -11 -48 -19 -60 -17 -17 3 -12 7 23 20 62 23 83
21 37 -3z m-127 -27 c0 -14 -94 -52 -128 -52 -39 0 -51 17 -20 29 13 5 24 5
26 0 6 -15 39 -10 63 11 24 20 59 27 59 12z m24 -31 c5 -8 -43 -31 -65 -31
-20 0 -7 19 19 28 35 13 40 14 46 3z m3608 -235 c27 -16 22 -31 -23 -70 -54
-46 -152 -61 -182 -28 -14 16 -14 20 0 50 9 18 28 42 42 53 22 18 34 19 85 13
33 -3 68 -11 78 -18z m-3412 -785 c0 -6 -4 -13 -10 -16 -5 -3 -10 1 -10 9 0 9
5 16 10 16 6 0 10 -4 10 -9z m-416 -67 c-3 -13 -10 -24 -15 -24 -11 0 -12 73
-2 84 11 11 24 -33 17 -60z m-284 -144 c0 -5 -7 -10 -15 -10 -8 0 -15 5 -15
10 0 6 7 10 15 10 8 0 15 -4 15 -10z m3655 -70 c0 -22 -39 -19 -43 3 -3 15 1
18 20 15 12 -2 23 -10 23 -18z m-3205 -20 c0 -5 -4 -10 -10 -10 -5 0 -10 5
-10 10 0 6 5 10 10 10 6 0 10 -4 10 -10z m3380 -136 c0 -21 3 -25 18 -19 28
12 72 24 72 20 0 -2 3 -10 6 -19 5 -13 -1 -16 -27 -16 -68 -1 -108 -36 -148
-128 -9 -20 -26 -16 -29 8 -3 17 -11 20 -51 20 -48 0 -84 -21 -61 -35 16 -10
12 -27 -7 -23 -39 7 -29 119 12 134 20 8 65 -11 65 -27 0 -6 10 -19 22 -29 33
-26 51 -12 84 70 31 74 44 87 44 44z m-60 7 c0 -16 -30 -33 -47 -26 -16 6 -15
8 7 20 29 17 40 18 40 6z m-1410 -11 c0 -5 -4 -10 -10 -10 -5 0 -10 5 -10 10
0 6 5 10 10 10 6 0 10 -4 10 -10z m720 -70 c13 -8 12 -11 -5 -24 -11 -9 -23
-16 -26 -16 -13 0 -17 28 -6 39 13 13 18 13 37 1z m860 -78 c14 -2 46 -22 72
-43 37 -32 52 -38 72 -33 35 9 33 -7 -5 -28 -40 -23 -56 -23 -64 2 -3 11 -11
20 -16 20 -5 0 -27 18 -49 40 -22 22 -45 40 -52 40 -7 0 -25 -12 -41 -27 -26
-25 -25 -22 9 26 36 51 39 53 44 30 4 -16 14 -25 30 -27z m137 12 c-9 -9 -28
6 -21 18 4 6 10 6 17 -1 6 -6 8 -13 4 -17z m-1000 -39 c-16 -16 -37 -20 -37
-7 0 8 42 30 49 25 2 -1 -4 -9 -12 -18z m-2530 -11 c-3 -3 -12 -4 -19 -1 -8 3
-5 6 6 6 11 1 17 -2 13 -5z m82 -30 c13 -12 -8 -10 -29 2 l-25 15 25 -7 c14
-3 27 -8 29 -10z m61 -39 c0 -12 -29 -3 -34 10 -4 13 -2 14 14 5 11 -6 20 -13
20 -15z m3452 -57 c-10 -10 -15 -10 -22 2 -5 8 -10 24 -10 35 0 19 1 19 22 -3
18 -17 20 -24 10 -34z m-74 -58 c23 -21 42 -46 42 -55 0 -8 12 -20 28 -26 15
-5 34 -20 43 -31 l16 -21 37 23 c43 26 50 23 36 -14 -17 -45 -12 -65 16 -72
19 -5 22 -9 12 -15 -28 -18 -56 -10 -67 21 -7 22 -16 30 -34 30 -13 0 -36 9
-50 20 -14 11 -32 20 -40 20 -8 0 -20 13 -27 30 -10 24 -64 70 -82 70 -3 0
-15 -9 -28 -20 -12 -11 -27 -17 -32 -14 -7 5 67 83 88 94 0 0 19 -18 42 -40z
m-3894 -74 c52 -22 77 -65 70 -120 l-7 -45 34 10 c19 5 59 9 91 8 l56 -2 22
-47 c32 -68 22 -106 -28 -113 -20 -3 -66 -13 -102 -22 -36 -10 -77 -17 -92
-18 -16 0 -28 -5 -28 -11 0 -12 -35 -46 -48 -46 -4 0 -8 19 -9 41 -2 48 -26
104 -51 119 -13 8 -4 10 37 8 61 -3 79 14 36 34 -17 8 -25 18 -22 28 4 15 -5
16 -67 14 -39 -2 -96 -10 -126 -19 -30 -8 -65 -15 -78 -15 -12 0 -34 -7 -48
-16 -15 -10 -29 -13 -34 -8 -12 12 0 66 14 61 6 -2 15 0 21 5 5 5 30 27 55 49
45 40 120 81 195 105 52 17 69 17 109 0z m1381 -6 c3 -6 -1 -7 -9 -4 -18 7
-21 14 -7 14 6 0 13 -4 16 -10z m219 -69 c3 -4 18 -7 33 -5 16 1 39 -4 52 -13
18 -11 25 -12 31 -3 5 9 9 9 14 1 4 -6 23 -11 41 -11 19 0 56 -7 82 -15 26 -8
73 -22 103 -31 59 -17 180 -74 180 -85 0 -11 49 -28 125 -43 39 -8 84 -20 100
-26 16 -6 47 -12 70 -14 23 -2 51 -8 62 -14 17 -9 25 -7 44 9 16 14 32 19 49
15 14 -3 40 -8 58 -12 17 -3 32 -10 32 -14 0 -16 195 -36 416 -44 56 -2 110
-9 121 -14 14 -8 23 -8 31 0 8 8 15 8 26 -1 8 -7 20 -10 26 -6 6 4 17 2 25 -5
7 -6 29 -13 47 -15 18 -3 34 -9 36 -15 2 -5 15 -10 28 -10 14 0 22 -4 19 -10
-3 -5 -21 -10 -38 -10 -39 0 -62 -14 -52 -30 6 -9 9 -9 16 1 7 11 9 11 9 -1 0
-9 -5 -21 -10 -26 -7 -7 2 -16 28 -27 21 -9 53 -31 71 -49 28 -28 32 -37 27
-68 -3 -19 -14 -41 -23 -48 -25 -19 -94 -10 -131 17 -17 11 -36 21 -42 21 -7
0 -25 15 -41 32 -31 36 -39 78 -13 78 8 0 12 5 9 11 -4 5 0 18 8 27 13 14 13
20 2 35 -10 14 -24 18 -57 16 -24 -1 -56 3 -73 10 -80 34 -291 67 -359 57 -42
-7 -86 -33 -86 -52 -1 -13 -101 -84 -120 -84 -8 0 -28 11 -43 25 -19 18 -27
21 -27 11 0 -9 -11 -16 -27 -18 -24 -3 -28 -8 -28 -35 -1 -17 -9 -41 -19 -52
-24 -27 -77 -37 -107 -20 -14 7 -65 13 -126 14 -99 1 -104 2 -133 30 -16 16
-33 38 -36 49 -10 31 -84 125 -102 130 -16 4 -97 21 -164 33 -16 3 -28 9 -28
14 0 5 -6 9 -13 9 -7 0 -29 11 -49 25 -20 14 -44 25 -52 25 -9 0 -16 3 -16 8
0 14 62 62 81 62 33 0 99 24 96 35 -4 10 -50 37 -149 86 -32 16 -58 33 -58 39
0 12 17 13 24 1z m2626 -69 c0 -22 -1 -22 -32 -6 l-31 16 24 18 c26 21 39 12
39 -28z m-4654 -236 c3 -22 17 -49 31 -62 22 -21 23 -24 9 -30 -9 -4 -32 -4
-51 -1 -23 4 -38 1 -46 -9 -17 -20 -33 -17 -67 11 -17 14 -35 25 -41 25 -5 0
-15 8 -20 19 -9 16 -4 22 34 41 24 13 53 20 64 17 12 -3 18 -1 15 4 -6 10 14
33 36 41 19 6 27 -7 36 -56z m337 18 c32 -17 33 -25 7 -49 -19 -17 -20 -17
-26 0 -6 16 -8 16 -16 1 -5 -9 -17 -16 -27 -16 -11 0 -24 -12 -31 -29 -6 -16
-17 -28 -23 -26 -7 2 -24 6 -39 9 -15 4 -32 15 -38 26 -13 24 -4 61 13 59 34
-4 55 3 60 20 4 16 13 20 48 19 24 0 56 -7 72 -14z m1992 -524 c11 -12 20 -30
22 -41 3 -18 1 -19 -25 -4 -40 22 -62 41 -62 54 0 19 46 12 65 -9z"/>
<path d="M3602 633 c-24 -10 0 -23 41 -23 39 1 41 2 23 15 -20 15 -40 18 -64
8z"/>
<path d="M3465 521 c-6 -11 9 -23 19 -14 9 9 7 23 -3 23 -6 0 -12 -4 -16 -9z"/>
<path d="M1880 3070 c-22 -7 -20 -8 15 -9 22 0 47 4 55 9 11 7 8 9 -15 9 -16
-1 -41 -5 -55 -9z"/>
<path d="M2440 3050 c20 -13 33 -13 25 0 -3 6 -14 10 -23 10 -15 0 -15 -2 -2
-10z"/>
<path d="M1823 3043 c9 -2 23 -2 30 0 6 3 -1 5 -18 5 -16 0 -22 -2 -12 -5z"/>
<path d="M1957 3029 c6 -6 32 -14 58 -16 29 -4 44 -10 42 -17 -3 -7 16 -17 51
-25 30 -7 64 -18 74 -24 15 -10 21 -9 28 3 9 14 11 13 14 -10 0 -6 25 -22 54
-35 31 -15 56 -33 59 -44 8 -33 31 -33 38 0 4 16 10 29 14 29 16 0 43 -40 38
-55 -4 -8 -2 -15 3 -15 6 0 10 -5 10 -11 0 -5 -4 -7 -10 -4 -5 3 -10 4 -10 1
0 -7 63 -37 67 -32 3 2 0 13 -6 24 -6 11 -8 34 -5 51 11 53 -49 94 -84 59 -9
-9 -18 -9 -37 0 -50 23 3 45 74 32 22 -4 45 -4 52 0 23 15 -25 27 -110 29 -76
2 -83 1 -71 -14 22 -27 1 -30 -43 -7 -23 12 -50 22 -61 22 -10 0 -46 13 -80
29 -61 29 -181 52 -159 30z"/>
<path d="M2510 3031 c0 -6 -16 -7 -35 -4 -19 3 -35 3 -35 0 0 -12 72 -25 107
-20 33 6 34 7 18 20 -22 15 -55 17 -55 4z"/>
<path d="M2724 3018 c17 -13 17 -15 2 -21 -22 -9 -20 -44 2 -56 31 -17 63 -2
60 27 -2 20 2 27 22 32 33 8 17 16 -50 25 -49 6 -53 5 -36 -7z"/>
<path d="M1800 3011 c-8 -5 -59 -18 -112 -29 -110 -24 -227 -80 -295 -143 -23
-21 -47 -39 -53 -39 -14 0 -12 -27 3 -33 19 -7 47 11 106 67 35 32 56 46 59
37 2 -7 -5 -21 -16 -31 -11 -11 -23 -28 -27 -40 -3 -11 -10 -20 -15 -20 -5 0
-11 -14 -15 -31 -9 -39 7 -52 56 -45 43 7 83 -17 76 -45 -3 -11 -3 -19 -1 -19
3 0 30 19 60 42 43 32 59 39 72 32 28 -18 23 -30 -18 -43 -28 -8 -45 -21 -56
-42 -27 -53 -9 -49 67 12 15 12 33 19 40 17 8 -3 1 -12 -18 -23 -31 -18 -49
-50 -33 -60 4 -3 24 2 44 10 33 14 41 28 37 62 -1 7 14 15 34 19 19 3 37 10
40 14 10 16 -67 90 -92 90 -38 0 -22 24 18 28 42 4 56 16 40 35 -9 12 -8 16 8
20 20 5 45 38 56 75 l6 22 -106 -5 c-138 -7 -160 -20 -170 -102 -8 -66 5 -83
63 -83 23 0 32 -4 29 -12 -6 -19 -98 -11 -120 11 -17 16 -17 24 -6 85 l13 68
54 24 c29 13 80 26 111 28 31 3 70 12 87 21 16 8 39 15 52 15 13 0 20 4 17 10
-8 12 -74 13 -95 1z m30 -91 c0 -5 -13 -10 -29 -10 -65 0 -112 -44 -61 -57 11
-3 20 -8 20 -12 0 -7 -59 -45 -61 -39 0 2 -2 22 -4 45 -2 34 1 45 19 56 37 25
116 36 116 17z"/>
<path d="M1980 2952 c-47 -6 -53 -10 -36 -27 18 -18 47 -20 44 -2 -2 7 5 11
15 9 9 -2 24 1 33 6 14 8 13 10 -7 13 -13 3 -35 3 -49 1z"/>
<path d="M2595 2940 c-3 -5 3 -10 14 -10 12 0 21 5 21 10 0 6 -6 10 -14 10 -8
0 -18 -4 -21 -10z"/>
<path d="M3268 2933 c7 -3 16 -2 19 1 4 3 -2 6 -13 5 -11 0 -14 -3 -6 -6z"/>
<path d="M2090 2913 c-33 -22 -40 -33 -40 -63 0 -15 -5 -31 -10 -36 -13 -13 4
-30 34 -36 13 -2 20 4 22 20 2 12 20 38 39 58 28 27 40 33 60 28 30 -7 31 -14
5 -37 -27 -23 -25 -37 5 -37 17 0 25 6 25 18 0 11 3 13 8 5 5 -8 13 -6 29 6
22 19 16 50 -7 36 -8 -5 -11 -4 -7 2 6 10 -95 53 -124 53 -8 0 -26 -8 -39 -17z"/>
<path d="M2830 2920 c-13 -8 -12 -11 5 -24 11 -9 25 -16 32 -16 21 0 25 21 7
35 -23 17 -25 17 -44 5z"/>
<path d="M3363 2918 c3 -16 -53 -29 -100 -22 -28 4 -43 2 -43 -5 0 -29 93 -43
104 -16 4 12 15 14 44 9 31 -5 39 -3 39 9 0 8 -11 20 -24 26 -16 8 -22 7 -20
-1z"/>
<path d="M3093 2910 c-13 -5 -23 -14 -23 -19 0 -16 39 -33 68 -29 21 2 27 8
27 28 0 19 -6 25 -25 27 -14 1 -35 -2 -47 -7z"/>
<path d="M2514 2882 c8 -15 12 -39 9 -54 -4 -22 2 -32 43 -62 27 -19 54 -36
60 -36 16 0 25 26 17 46 -5 14 -8 14 -22 -5 l-17 -22 -24 33 c-15 20 -19 33
-12 36 8 2 6 11 -5 29 -16 24 -16 26 0 38 22 16 11 25 -30 25 -33 0 -33 0 -19
-28z"/>
<path d="M3475 2900 c3 -5 11 -10 16 -10 6 0 7 5 4 10 -3 6 -11 10 -16 10 -6
0 -7 -4 -4 -10z"/>
<path d="M2640 2870 c0 -5 12 -10 28 -10 21 0 24 2 12 10 -20 13 -40 13 -40 0z"/>
<path d="M2851 2869 c-19 -4 -40 -5 -48 -2 -7 3 -13 0 -13 -6 0 -6 1 -11 3
-11 62 -9 117 -10 117 -2 0 19 -25 29 -59 21z"/>
<path d="M3464 2865 c11 -8 31 -15 45 -15 25 1 25 1 7 15 -11 8 -31 15 -45 15
-25 -1 -25 -1 -7 -15z"/>
<path d="M3560 2871 c0 -12 66 -34 83 -28 6 2 -5 12 -27 21 -44 18 -56 20 -56
7z"/>
<path d="M3720 2853 c0 -11 80 -33 118 -32 l27 0 -25 11 c-14 5 -38 11 -55 12
-16 2 -38 6 -47 10 -10 5 -18 4 -18 -1z"/>
<path d="M3189 2835 c-12 -13 -21 -14 -43 -5 -38 14 -46 13 -46 -10 0 -14 -11
-22 -41 -30 -29 -8 -39 -16 -37 -28 6 -30 49 -29 128 1 76 29 82 31 135 42
l30 7 -24 19 c-28 23 -81 25 -102 4z"/>
<path d="M3368 2843 c-29 -7 -21 -30 13 -37 42 -8 29 -22 -29 -29 -92 -11
-144 -51 -111 -84 16 -16 3 -43 -21 -43 -14 0 -20 7 -20 24 0 26 -20 39 -45
30 -20 -8 -19 -24 2 -54 27 -39 45 -49 89 -50 49 0 62 13 72 70 7 41 9 43 55
55 58 15 87 39 69 57 -7 7 -12 16 -12 21 0 11 125 0 200 -18 63 -15 147 -17
155 -5 15 24 -75 40 -215 41 -19 0 -48 4 -65 8 -40 12 -116 20 -137 14z"/>
<path d="M2725 2812 c-48 -16 -13 -82 53 -102 27 -7 34 -5 42 10 7 13 21 19
48 18 21 0 53 7 70 16 17 9 38 16 47 16 25 0 17 19 -12 26 -17 5 -37 2 -54 -8
-17 -10 -31 -12 -36 -7 -14 14 -39 1 -51 -25 -8 -18 -16 -22 -36 -19 -15 3
-29 9 -32 14 -3 5 -14 9 -26 9 -16 0 -18 3 -9 13 6 8 8 17 4 20 -3 4 8 7 25 7
18 0 32 5 32 10 0 11 -34 12 -65 2z"/>
<path d="M3900 2810 c8 -5 24 -10 35 -10 17 0 17 2 5 10 -8 5 -24 10 -35 10
-17 0 -17 -2 -5 -10z"/>
<path d="M2146 2803 c-8 -9 14 -33 30 -33 8 0 14 3 14 8 0 11 -37 32 -44 25z"/>
<path d="M2310 2785 c0 -8 9 -19 20 -25 14 -8 20 -21 20 -46 0 -19 6 -47 14
-62 16 -31 19 -53 17 -139 -1 -56 -3 -63 -21 -63 -27 0 -33 18 -22 66 11 51 0
101 -29 130 -23 22 -25 22 -45 6 -20 -17 -20 -21 -9 -90 13 -74 18 -84 69
-139 46 -50 107 -41 119 17 3 14 13 55 23 92 l17 66 -32 40 c-17 22 -31 49
-31 60 0 11 -7 25 -15 32 -8 7 -15 18 -15 26 0 16 -39 44 -62 44 -10 0 -18 -7
-18 -15z"/>
<path d="M3831 2785 c14 -8 56 -19 91 -25 36 -5 82 -17 103 -26 20 -8 42 -13
48 -11 17 5 -48 37 -76 37 -13 0 -43 6 -68 14 -24 8 -62 17 -84 20 -39 5 -39
5 -14 -9z"/>
<path d="M1182 2762 c-13 -13 -40 -21 -83 -25 -81 -7 -91 -11 -106 -44 -16
-33 -10 -39 22 -25 25 12 85 17 85 7 0 -2 -5 -16 -12 -30 -10 -22 -9 -28 3
-36 38 -24 74 8 44 41 -22 25 -9 48 36 61 43 13 75 42 64 58 -10 16 -33 13
-53 -7z"/>
<path d="M3496 2771 c-7 -11 29 -48 57 -57 10 -3 32 0 48 6 25 11 32 10 47 -3
30 -27 112 -59 137 -53 12 3 25 15 28 26 4 17 13 20 56 20 38 0 51 4 51 15 0
19 -58 34 -88 23 -13 -4 -36 -8 -52 -8 -16 0 -31 -4 -34 -9 -6 -10 -56 -3 -73
11 -6 5 -41 13 -76 18 -35 5 -71 12 -80 15 -8 4 -18 2 -21 -4z"/>
<path d="M2254 2756 c-3 -9 -13 -16 -21 -16 -9 0 -13 -8 -11 -22 2 -18 11 -24
36 -26 30 -3 32 -1 32 26 0 36 -26 63 -36 38z"/>
<path d="M2936 2711 c-11 -12 -14 -21 -7 -25 12 -8 42 6 61 28 11 14 9 16 -12
16 -14 0 -33 -9 -42 -19z"/>
<path d="M3968 2714 c24 -16 92 -31 92 -20 0 10 -66 36 -92 36 l-22 0 22 -16z"/>
<path d="M2510 2711 c0 -4 7 -17 16 -29 8 -12 11 -22 6 -22 -5 0 -14 11 -20
25 -11 25 -32 34 -32 15 0 -5 5 -10 11 -10 6 0 8 -7 5 -17 -4 -9 -1 -20 6 -24
21 -13 15 -142 -9 -201 -22 -52 -8 -68 48 -58 23 4 45 14 50 21 12 20 11 69
-2 69 -6 0 -9 10 -7 23 2 18 8 21 31 19 21 -3 27 1 27 16 0 26 -33 54 -55 46
-15 -6 -17 -2 -13 37 3 24 8 51 12 61 5 12 1 18 -16 24 -30 10 -58 12 -58 5z"/>
<path d="M3460 2706 c0 -7 9 -25 21 -40 24 -30 18 -46 -18 -46 -20 0 -24 4
-20 20 5 21 -16 50 -36 50 -22 0 -34 -15 -42 -50 -4 -19 -12 -40 -17 -47 -14
-17 -1 -51 27 -69 32 -21 72 -9 91 28 11 22 20 28 32 22 41 -17 70 -16 74 3 8
37 -11 88 -44 115 -36 30 -68 36 -68 14z"/>
<path d="M895 2694 c-17 -13 -17 -14 13 -14 18 0 32 4 32 9 0 16 -26 19 -45 5z"/>
<path d="M2691 2694 c10 -13 10 -17 -2 -25 -8 -5 -24 -7 -36 -4 -20 5 -23 1
-23 -24 0 -21 8 -35 29 -50 l29 -21 40 41 c23 22 39 46 36 53 -4 11 -65 46
-81 46 -3 0 0 -7 8 -16z"/>
<path d="M4140 2696 c14 -9 32 -15 40 -15 13 0 13 1 0 8 -8 5 -26 12 -40 15
l-25 7 25 -15z"/>
<path d="M3010 2679 c0 -14 6 -17 28 -13 42 7 54 13 47 24 -4 6 -22 9 -41 8
-25 -1 -34 -7 -34 -19z"/>
<path d="M1220 2656 c0 -27 4 -36 16 -36 13 0 14 3 5 14 -6 7 -9 20 -5 29 3 8
1 18 -5 22 -7 4 -11 -7 -11 -29z"/>
<path d="M2822 2662 c-23 -23 -83 -95 -102 -120 -3 -4 -18 -13 -33 -20 -21 -9
-28 -18 -25 -34 4 -29 37 -36 56 -12 10 13 16 15 19 7 8 -22 101 57 118 99
l15 39 22 -21 c28 -26 65 -26 73 0 9 27 1 36 -35 44 -20 3 -29 10 -24 17 8 13
-13 29 -39 29 -10 0 -31 -13 -45 -28z m68 -16 c0 -2 -7 -7 -16 -10 -8 -3 -12
-2 -9 4 6 10 25 14 25 6z"/>
<path d="M3960 2676 c0 -7 7 -19 15 -26 21 -17 19 -30 -5 -30 -25 0 -26 -22
-1 -44 28 -26 63 -13 55 20 -5 18 -2 24 10 24 35 0 3 40 -47 59 -21 8 -27 8
-27 -3z"/>
<path d="M4140 2659 c57 -50 89 -66 115 -61 34 6 31 26 -6 53 -31 22 -31 22
-20 1 17 -31 -3 -36 -36 -9 -59 50 -109 65 -53 16z"/>
<path d="M3850 2658 c-38 -40 -42 -64 -18 -114 24 -52 58 -72 95 -55 13 6 26
18 29 26 8 20 -24 57 -46 53 -17 -3 -50 18 -50 32 0 5 18 11 40 15 55 9 52 41
-7 59 -15 5 -28 0 -43 -16z"/>
<path d="M3613 2663 c-37 -14 7 -71 45 -59 12 4 26 -6 45 -29 29 -37 64 -46
74 -19 9 25 -14 63 -44 70 -15 4 -45 15 -65 25 -21 11 -39 19 -40 18 -2 0 -9
-3 -15 -6z"/>
<path d="M1469 2645 c-16 -17 -15 -65 2 -65 17 0 50 41 47 58 -4 23 -30 26
-49 7z"/>
<path d="M4070 2651 c0 -16 51 -51 74 -51 19 1 18 4 -12 30 -32 29 -62 39 -62
21z"/>
<path d="M1025 2630 c-3 -5 -4 -14 0 -20 8 -13 35 -1 35 16 0 16 -26 19 -35 4z"/>
<path d="M1902 2611 c4 -17 49 -31 78 -24 19 5 20 7 5 23 -21 23 -87 23 -83 1z"/>
<path d="M2120 2616 c0 -20 34 -60 47 -55 17 6 -12 69 -32 69 -8 0 -15 -6 -15
-14z"/>
<path d="M1386 2592 c-4 -13 -5 -26 -2 -29 10 -11 18 4 14 29 l-4 23 -8 -23z"/>
<path d="M3047 2603 c-16 -3 -31 -12 -34 -21 -13 -38 -33 -50 -72 -45 -36 5
-42 1 -93 -49 -30 -29 -68 -62 -83 -72 l-28 -19 39 -20 c21 -10 47 -19 57 -19
9 0 17 -6 17 -14 0 -18 37 -18 70 1 14 8 34 14 46 15 17 0 44 34 44 55 0 12
-40 3 -103 -22 -58 -23 -70 -25 -78 -12 -14 22 -11 27 25 39 19 6 40 18 47 27
21 24 58 34 94 24 40 -11 65 2 65 34 0 32 17 41 40 20 24 -22 50 -16 61 13 7
18 4 28 -16 48 -23 23 -38 26 -98 17z"/>
<path d="M4330 2596 c0 -16 90 -89 99 -80 3 3 -7 17 -24 30 -22 18 -27 26 -17
32 9 6 5 12 -13 20 -34 16 -45 15 -45 -2z"/>
<path d="M4425 2600 c3 -5 13 -10 21 -10 8 0 14 5 14 10 0 6 -9 10 -21 10 -11
0 -17 -4 -14 -10z"/>
<path d="M4070 2571 c0 -21 53 -71 76 -71 31 0 28 33 -6 62 -40 33 -70 37 -70
9z"/>
<path d="M3610 2561 c-20 -38 24 -111 67 -111 45 0 42 63 -4 106 -31 29 -49
30 -63 5z"/>
<path d="M750 2559 c0 -5 5 -7 10 -4 6 3 10 8 10 11 0 2 -4 4 -10 4 -5 0 -10
-5 -10 -11z"/>
<path d="M1230 2550 c0 -13 5 -20 13 -17 6 2 12 10 12 17 0 7 -6 15 -12 18 -8
2 -13 -5 -13 -18z"/>
<path d="M4200 2550 c0 -48 48 -93 75 -70 11 9 11 17 3 35 -9 19 -22 29 -70
53 -5 2 -8 -6 -8 -18z"/>
<path d="M1466 2527 c-3 -19 -12 -42 -19 -52 -13 -16 -16 -16 -38 -2 -22 14
-28 13 -68 -6 -28 -14 -45 -29 -47 -42 -1 -11 -6 -30 -9 -42 -7 -23 8 -33 20
-14 3 6 26 13 51 17 28 4 50 14 57 25 13 21 37 25 54 8 10 -10 44 -16 96 -18
27 -1 20 -25 -13 -44 -24 -15 -30 -25 -30 -53 0 -27 5 -36 24 -44 13 -5 34
-26 46 -47 33 -58 131 -113 221 -123 38 -4 72 -10 75 -13 3 -2 21 1 42 8 21 8
58 11 88 8 74 -8 114 9 147 61 15 23 27 55 27 70 0 18 5 26 13 24 22 -8 19
-38 -7 -92 -34 -69 -33 -83 4 -91 16 -4 33 -11 36 -16 12 -20 -7 -22 -46 -4
-37 17 -43 17 -97 2 -84 -24 -209 -24 -323 -1 -20 4 -23 3 -13 -7 16 -16 111
-30 223 -34 47 -2 95 -4 107 -4 12 -1 28 -7 36 -15 9 -9 24 -12 37 -9 19 5 22
3 17 -10 -6 -17 4 -23 17 -10 3 4 13 8 21 9 8 1 48 30 89 65 51 42 72 67 68
77 -4 13 -7 11 -15 -6 -10 -23 -27 -30 -27 -12 0 15 -21 12 -42 -7 -28 -25
-34 -6 -7 23 l24 27 -27 -18 c-27 -17 -28 -17 -28 3 0 11 6 27 14 35 12 12 29
68 31 102 0 6 9 10 20 10 13 0 20 7 20 19 0 11 6 21 13 24 6 2 12 -1 12 -7 0
-14 37 -14 45 -1 3 6 15 10 25 10 22 0 36 18 24 30 -5 5 -24 2 -43 -8 -26 -12
-36 -13 -39 -4 -2 7 -10 12 -17 12 -25 0 -108 77 -129 120 -14 29 -26 44 -36
41 -8 -2 -28 -7 -45 -10 -27 -6 -30 -10 -27 -42 2 -19 19 -57 38 -85 32 -47
46 -104 25 -104 -5 0 -17 20 -26 44 -9 24 -27 49 -41 56 -21 12 -26 11 -45
-14 -11 -14 -34 -33 -50 -41 -25 -13 -29 -14 -29 -1 0 8 -5 16 -10 18 -7 2 -5
17 5 42 9 21 15 50 13 65 -3 24 -5 23 -24 -19 -22 -46 -46 -72 -76 -83 -27
-10 -30 9 -3 21 30 14 53 48 56 87 4 43 -8 72 -41 95 -36 25 -60 27 -37 3 14
-17 12 -18 -31 -20 -25 -1 -51 2 -58 8 -19 16 -53 1 -74 -33 -16 -26 -19 -28
-27 -13 -9 15 -13 14 -32 -14 -29 -40 -41 -39 -41 4 0 28 -5 37 -24 45 -13 5
-26 15 -28 22 -4 10 -8 10 -19 1 -12 -10 -17 -8 -27 8 -18 29 -39 23 -46 -14z
m449 -84 c-8 -32 -83 -106 -98 -96 -6 4 1 15 19 29 62 49 76 65 71 85 -3 11
-1 16 5 13 5 -3 7 -18 3 -31z m-102 -60 c-7 -2 -19 -2 -25 0 -7 3 -2 5 12 5
14 0 19 -2 13 -5z m500 -67 c7 -19 -18 -40 -38 -32 -15 6 -20 28 -8 39 12 12
41 7 46 -7z"/>
<path d="M4290 2546 c0 -15 69 -61 77 -52 6 6 -58 66 -69 66 -5 0 -8 -6 -8
-14z"/>
<path d="M3233 2533 c-12 -10 -23 -31 -25 -48 -3 -29 -4 -30 -50 -27 -30 2
-48 0 -48 -7 0 -6 -7 -11 -16 -11 -13 0 -15 -7 -10 -31 3 -17 6 -38 6 -45 0
-8 7 -14 15 -14 17 0 22 -75 5 -85 -5 -3 -10 -18 -10 -32 0 -15 -15 -43 -37
-69 -62 -70 -103 -125 -103 -138 0 -6 6 -36 14 -66 8 -30 12 -67 9 -82 -4 -21
2 -34 26 -58 31 -32 39 -50 21 -50 -5 0 -7 -6 -4 -14 3 -8 1 -17 -5 -21 -6 -3
-11 -10 -11 -14 0 -13 35 -7 51 9 18 18 33 54 19 45 -6 -3 -10 -2 -10 4 0 5 6
11 13 14 9 3 9 8 -2 21 -8 9 -20 15 -28 12 -15 -6 -17 6 -3 20 12 12 2 47 -11
38 -5 -3 -9 0 -9 5 0 6 5 11 10 11 19 0 11 59 -10 70 -11 6 -20 20 -20 30 0
11 -5 20 -12 20 -6 0 -9 3 -5 6 3 3 19 0 34 -8 39 -20 53 -12 53 27 0 18 7 49
16 70 8 21 13 43 10 50 -7 18 18 50 32 41 16 -10 15 -55 -3 -105 -11 -33 -12
-47 -3 -67 7 -16 8 -28 2 -32 -16 -12 -35 -52 -29 -63 4 -5 9 -22 11 -37 3
-15 9 -31 14 -35 14 -15 45 -3 48 18 3 16 1 18 -9 8 -7 -7 -17 -13 -21 -13
-11 0 -10 42 2 60 9 13 12 13 24 -2 7 -10 16 -18 20 -18 11 0 6 51 -9 79 -13
27 -13 30 10 51 32 30 31 48 -1 96 -34 50 -67 150 -62 186 3 16 1 31 -4 34 -4
3 -8 12 -8 20 0 16 36 19 45 4 10 -16 75 -12 75 4 0 8 9 18 20 21 23 7 63 85
58 112 -4 25 -57 28 -85 6z m-103 -302 c0 -6 -4 -13 -10 -16 -5 -3 -10 1 -10
9 0 9 5 16 10 16 6 0 10 -4 10 -9z"/>
<path d="M3500 2510 c-25 -25 -25 -35 1 -76 l21 -34 -21 0 c-11 0 -25 10 -32
23 -27 53 -91 74 -122 40 -19 -22 -8 -48 38 -86 82 -68 159 -88 171 -43 3 14
1 33 -4 42 -8 15 -5 22 20 36 26 16 29 23 23 51 -7 33 -37 67 -61 67 -8 0 -23
-9 -34 -20z"/>
<path d="M4557 2519 c7 -7 15 -10 18 -7 3 3 -2 9 -12 12 -14 6 -15 5 -6 -5z"/>
<path d="M1166 2511 c-3 -4 1 -17 9 -27 14 -18 14 -18 15 9 0 26 -13 36 -24
18z"/>
<path d="M4000 2495 c0 -30 30 -62 65 -71 63 -16 75 31 18 71 -50 33 -83 34
-83 0z"/>
<path d="M4484 2512 c2 -4 26 -22 53 -40 l48 -34 -44 41 c-38 36 -71 55 -57
33z"/>
<path d="M4715 2485 c15 -14 30 -23 33 -20 8 8 -17 33 -40 39 -19 4 -18 2 7
-19z"/>
<path d="M2077 2494 c-7 -8 4 -44 14 -44 12 0 12 37 0 44 -4 3 -11 3 -14 0z"/>
<path d="M3757 2482 c-25 -27 -21 -57 13 -95 27 -31 29 -38 23 -85 -3 -30 -2
-52 4 -52 18 0 103 60 103 73 0 8 -9 22 -20 32 -13 12 -20 31 -20 56 0 35 -28
79 -51 79 -4 0 -14 2 -21 5 -8 3 -22 -3 -31 -13z"/>
<path d="M752 2450 c-22 -29 -18 -42 6 -18 7 7 12 8 12 4 0 -5 7 -3 15 4 8 7
15 19 15 26 0 24 -25 15 -48 -16z"/>
<path d="M4360 2464 c-7 -8 -18 -14 -25 -14 -17 0 -12 -73 6 -79 7 -2 24 -15
37 -28 32 -32 36 -25 11 21 -22 41 -21 46 8 50 26 4 24 47 -4 57 -15 5 -25 3
-33 -7z"/>
<path d="M4175 2460 c-3 -5 3 -10 14 -10 11 0 23 5 26 10 3 6 -3 10 -14 10
-11 0 -23 -4 -26 -10z"/>
<path d="M720 2450 c-9 -6 -10 -10 -3 -10 6 0 15 5 18 10 8 12 4 12 -15 0z"/>
<path d="M4480 2448 c0 -25 53 -68 84 -68 l31 0 -29 19 c-16 11 -35 17 -43 14
-8 -3 -13 -2 -12 3 3 20 -2 32 -16 38 -8 3 -15 0 -15 -6z"/>
<path d="M4700 2450 c0 -5 7 -10 15 -10 8 0 15 5 15 10 0 6 -7 10 -15 10 -8 0
-15 -4 -15 -10z"/>
<path d="M3937 2438 c-15 -12 -15 -16 3 -55 21 -47 29 -51 65 -27 33 21 31 37
-6 68 -35 30 -39 31 -62 14z"/>
<path d="M988 2433 c7 -3 16 -2 19 1 4 3 -2 6 -13 5 -11 0 -14 -3 -6 -6z"/>
<path d="M1200 2426 c0 -8 4 -25 9 -38 5 -13 5 -33 0 -45 -12 -31 -45 -30 -53
2 -9 34 -56 36 -56 3 0 -13 -3 -47 -6 -75 -6 -50 -5 -53 15 -53 13 0 36 14 53
30 16 17 33 30 38 30 10 0 46 77 52 112 4 20 0 29 -19 37 -31 14 -33 14 -33
-3z"/>
<path d="M4198 2424 c-36 -19 -38 -47 -3 -38 25 6 35 -8 15 -21 -5 -3 -10 -10
-10 -16 0 -15 54 -11 76 6 17 14 18 16 3 28 -9 7 -18 21 -20 32 -5 25 -27 28
-61 9z"/>
<path d="M4640 2431 c0 -15 38 -56 45 -49 9 9 -11 44 -30 52 -8 3 -15 2 -15
-3z"/>
<path d="M2636 2386 c-17 -17 -29 -32 -28 -33 1 -2 -1 -3 -5 -2 -5 1 -7 5 -5
10 3 14 -11 11 -59 -10 -23 -11 -44 -26 -45 -35 -2 -12 2 -14 16 -6 25 14 30
13 24 -5 -9 -22 7 -41 18 -21 5 9 15 16 22 16 8 0 16 7 20 15 3 8 12 15 20 15
8 0 26 20 39 45 30 52 24 56 -17 11z"/>
<path d="M3617 2388 c-40 -53 -41 -70 -7 -116 53 -74 90 -79 116 -15 13 30 14
43 3 80 -11 43 -48 83 -75 83 -7 0 -24 -15 -37 -32z"/>
<path d="M817 2382 c-15 -9 -27 -24 -26 -32 4 -49 -4 -72 -41 -111 -30 -31
-37 -46 -30 -58 8 -14 9 -14 15 2 9 21 25 23 25 2 0 -9 10 -15 23 -16 12 0 38
-6 57 -13 43 -16 82 -5 105 31 20 30 14 38 -50 61 -56 20 -75 43 -56 66 20 24
47 19 97 -19 54 -42 79 -45 88 -10 8 33 -7 60 -41 74 -16 7 -39 18 -53 26 -33
20 -79 18 -113 -3z"/>
<path d="M4860 2385 c7 -9 15 -13 17 -11 7 7 -7 26 -19 26 -6 0 -6 -6 2 -15z"/>
<path d="M607 2364 c-23 -31 -18 -38 17 -25 16 7 26 18 26 31 0 27 -21 25 -43
-6z"/>
<path d="M560 2365 c-7 -9 -8 -15 -2 -15 5 0 12 7 16 15 3 8 4 15 2 15 -2 0
-9 -7 -16 -15z"/>
<path d="M3293 2373 c-20 -8 -15 -54 9 -89 23 -34 66 -64 91 -64 9 0 19 -5 22
-10 9 -15 -15 -42 -32 -36 -20 8 -43 -4 -43 -23 0 -23 -51 -101 -67 -101 -19
0 -26 -19 -11 -33 24 -22 43 -17 66 18 29 42 81 70 147 79 61 9 125 43 125 67
0 31 -49 79 -81 79 -41 0 -97 31 -144 79 -37 39 -54 46 -82 34z"/>
<path d="M2665 2345 c4 -16 11 -36 17 -43 20 -23 18 -6 -3 34 -19 35 -20 36
-14 9z"/>
<path d="M4657 2324 c90 -86 143 -119 143 -91 0 15 -72 72 -120 95 -14 6 -36
19 -50 28 -14 9 -2 -5 27 -32z"/>
<path d="M5659 2342 c-46 -46 -62 -92 -34 -92 8 0 15 -7 15 -15 0 -20 -65 -92
-98 -108 -14 -6 -32 -23 -41 -37 l-16 -25 35 25 c19 13 37 27 40 30 3 4 25 21
50 38 79 55 90 68 90 102 0 24 -4 31 -15 26 -8 -3 -15 -1 -15 4 0 5 7 15 15
24 15 15 21 56 8 55 -5 0 -20 -12 -34 -27z"/>
<path d="M4054 2346 c-14 -11 -16 -18 -8 -26 8 -8 19 -5 40 14 26 23 27 25 8
26 -11 0 -29 -6 -40 -14z"/>
<path d="M4460 2352 c0 -5 7 -16 16 -23 14 -12 16 -11 13 5 -4 20 -29 35 -29
18z"/>
<path d="M3206 2321 c-4 -5 0 -12 6 -15 10 -5 10 -7 0 -12 -25 -11 14 -146 46
-159 49 -18 56 66 12 143 -29 49 -51 64 -64 43z"/>
<path d="M4954 2315 c11 -8 24 -15 30 -15 5 0 1 7 -10 15 -10 8 -23 14 -29 14
-5 0 -1 -6 9 -14z"/>
<path d="M4099 2304 c-11 -14 -10 -15 11 -12 13 1 25 9 28 16 5 17 -23 15 -39
-4z"/>
<path d="M1388 2287 c-23 -19 -48 -56 -48 -71 0 -2 7 -12 16 -20 16 -16 115
-23 148 -10 28 11 19 61 -15 91 -39 35 -68 38 -101 10z"/>
<path d="M2650 2300 c0 -5 5 -10 11 -10 5 0 7 5 4 10 -3 6 -8 10 -11 10 -2 0
-4 -4 -4 -10z"/>
<path d="M2730 2301 c0 -17 18 -21 24 -6 3 9 0 15 -9 15 -8 0 -15 -4 -15 -9z"/>
<path d="M4570 2302 c0 -12 18 -27 43 -35 14 -5 18 -3 15 11 -2 9 -10 17 -18
17 -8 0 -21 4 -27 8 -7 5 -13 4 -13 -1z"/>
<path d="M2767 2280 c-3 -13 0 -20 9 -20 8 0 14 9 14 20 0 11 -4 20 -9 20 -5
0 -11 -9 -14 -20z"/>
<path d="M675 2250 c3 -5 8 -10 11 -10 2 0 4 5 4 10 0 6 -5 10 -11 10 -5 0 -7
-4 -4 -10z"/>
<path d="M2462 2248 c-7 -7 -12 -15 -12 -20 0 -12 28 2 34 18 7 17 -6 18 -22
2z"/>
<path d="M3849 2243 c-13 -15 -12 -15 9 -4 23 12 28 21 13 21 -5 0 -15 -7 -22
-17z"/>
<path d="M4210 2250 c0 -5 7 -10 15 -10 8 0 15 5 15 10 0 6 -7 10 -15 10 -8 0
-15 -4 -15 -10z"/>
<path d="M4555 2250 c-3 -6 -3 -19 0 -31 4 -13 1 -27 -10 -38 -15 -17 -14 -21
10 -49 27 -32 81 -57 90 -42 11 18 -15 51 -35 45 -12 -4 -24 2 -34 17 -22 31
-20 38 9 38 30 0 34 29 7 53 -21 20 -28 21 -37 7z"/>
<path d="M2875 2240 c-3 -5 1 -10 9 -10 9 0 16 5 16 10 0 6 -4 10 -9 10 -6 0
-13 -4 -16 -10z"/>
<path d="M996 2224 c-8 -22 -9 -21 19 -21 28 0 34 21 9 31 -21 8 -21 8 -28
-10z"/>
<path d="M2382 2215 c-12 -14 -27 -25 -33 -25 -5 0 -7 -5 -4 -11 8 -11 40 14
56 43 13 25 6 22 -19 -7z"/>
<path d="M4840 2232 c0 -5 10 -17 22 -28 l21 -19 -18 28 c-18 28 -25 33 -25
19z"/>
<path d="M660 2219 c0 -5 5 -7 10 -4 6 3 10 8 10 11 0 2 -4 4 -10 4 -5 0 -10
-5 -10 -11z"/>
<path d="M2581 2211 l-21 -19 30 -4 c28 -4 50 12 50 36 0 13 -39 5 -59 -13z"/>
<path d="M2986 2207 c-5 -15 -6 -31 -2 -34 11 -11 18 5 14 34 l-4 28 -8 -28z"/>
<path d="M3952 2208 c-24 -15 -30 -24 -22 -32 12 -12 83 21 77 38 -6 18 -21
16 -55 -6z"/>
<path d="M4660 2215 c-10 -12 -10 -21 0 -45 18 -44 39 -58 55 -37 11 15 17 16
38 6 14 -6 31 -25 38 -40 17 -42 46 -38 55 7 7 37 -8 84 -26 84 -6 0 -15 -11
-20 -25 -12 -32 -16 -31 -35 5 -14 27 -60 60 -83 60 -5 0 -15 -7 -22 -15z"/>
<path d="M2860 2194 c0 -8 5 -12 10 -9 6 3 10 10 10 16 0 5 -4 9 -10 9 -5 0
-10 -7 -10 -16z"/>
<path d="M4922 2185 c0 -16 2 -22 5 -12 2 9 2 23 0 30 -3 6 -5 -1 -5 -18z"/>
<path d="M635 2180 c-3 -5 -1 -10 4 -10 6 0 11 5 11 10 0 6 -2 10 -4 10 -3 0
-8 -4 -11 -10z"/>
<path d="M665 2170 c-3 -6 1 -13 10 -16 19 -8 30 0 20 15 -8 14 -22 14 -30 1z"/>
<path d="M505 2151 c-7 -23 6 -46 23 -40 5 2 4 16 -3 33 -12 29 -13 29 -20 7z"/>
<path d="M3959 2150 l-24 -19 27 -1 c23 0 58 22 58 36 0 12 -41 2 -61 -16z"/>
<path d="M4440 2160 c-13 -8 -13 -10 2 -10 9 0 20 5 23 10 8 13 -5 13 -25 0z"/>
<path d="M5645 2120 c-27 -22 -71 -57 -97 -76 -27 -20 -48 -40 -48 -45 0 -10
47 -2 65 11 14 10 45 20 45 15 0 -2 -20 -18 -45 -36 -50 -36 -54 -45 -24 -54
13 -4 18 -12 15 -21 -3 -8 5 -33 19 -54 14 -22 25 -43 25 -48 0 -4 23 -30 50
-57 l50 -49 0 136 c0 134 0 137 -22 141 l-23 4 23 8 c20 7 22 13 22 86 0 44
-1 79 -2 79 -2 0 -25 -18 -53 -40z"/>
<path d="M2884 2132 c22 -25 46 -29 46 -7 0 8 -6 15 -14 15 -8 0 -23 3 -33 7
-17 6 -17 5 1 -15z"/>
<path d="M4967 2120 c-12 -56 -8 -74 27 -129 44 -67 43 -66 55 -43 15 29 2 60
-30 71 -37 13 -42 59 -6 54 25 -4 21 12 -11 48 l-29 32 -6 -33z"/>
<path d="M4902 2127 c-6 -6 -14 -25 -17 -40 -4 -15 -19 -37 -34 -48 -14 -11
-31 -30 -38 -42 l-11 -22 -10 25 c-5 14 -14 39 -19 55 -8 27 -13 30 -43 27
-19 -1 -36 -5 -39 -8 -12 -12 35 -79 57 -82 15 -2 30 -19 48 -53 14 -28 30
-49 36 -47 7 3 20 30 31 62 12 35 28 63 43 73 20 13 24 24 24 64 0 49 -8 60
-28 36z"/>
<path d="M4399 2119 c-21 -8 -26 -16 -24 -38 3 -41 12 -51 72 -77 64 -28 79
-23 89 33 5 25 2 39 -10 51 -15 16 -18 15 -39 -12 -20 -25 -24 -26 -36 -12 -7
9 -11 27 -9 41 6 27 -1 29 -43 14z"/>
<path d="M2850 2107 c0 -18 21 -37 42 -37 11 0 15 5 12 15 -4 8 -12 15 -20 15
-8 0 -14 5 -14 10 0 6 -4 10 -10 10 -5 0 -10 -6 -10 -13z"/>
<path d="M5155 2110 c3 -5 11 -10 16 -10 6 0 7 5 4 10 -3 6 -11 10 -16 10 -6
0 -7 -4 -4 -10z"/>
<path d="M2460 2100 c0 -8 11 -20 25 -27 23 -10 29 -6 23 15 -1 4 -9 6 -17 4
-7 -2 -18 2 -22 10 -7 10 -9 10 -9 -2z"/>
<path d="M573 2093 c-21 -8 -15 -20 12 -26 20 -3 25 -1 23 11 -3 17 -17 23
-35 15z"/>
<path d="M804 2081 c11 -11 23 -21 28 -21 14 0 -1 19 -25 31 -22 12 -22 12 -3
-10z"/>
<path d="M5063 2079 c4 -13 7 -36 7 -50 0 -37 21 -60 48 -53 12 4 22 13 22 21
0 25 -28 70 -56 88 -27 17 -27 17 -21 -6z m51 -42 c6 -9 7 -19 3 -23 -9 -9
-37 15 -37 33 0 18 20 12 34 -10z"/>
<path d="M5284 2033 c9 -18 21 -33 26 -33 20 0 9 24 -24 50 -19 15 -19 14 -2
-17z"/>
<path d="M2731 2041 c-10 -6 -10 -10 -1 -16 13 -8 24 -1 19 14 -3 6 -10 7 -18
2z"/>
<path d="M2393 2026 c-13 -6 -23 -16 -23 -23 0 -7 -6 -16 -13 -20 -16 -9 -29
-53 -17 -53 17 0 70 55 70 73 0 16 2 17 15 7 21 -18 26 -9 6 10 -12 12 -21 14
-38 6z"/>
<path d="M5170 2029 c0 -19 12 -34 31 -41 8 -3 21 -24 27 -47 15 -47 32 -63
32 -28 0 24 -42 90 -73 116 -14 11 -17 11 -17 0z"/>
<path d="M4612 2010 c-12 -12 -22 -27 -22 -34 0 -8 -7 -19 -15 -26 -26 -22
-13 -102 14 -86 6 4 11 3 11 -2 0 -16 38 -21 56 -8 23 17 14 48 -19 64 -15 7
-27 20 -27 28 0 22 29 28 49 10 24 -22 31 -20 31 7 0 27 -26 67 -44 67 -7 0
-22 -9 -34 -20z"/>
<path d="M4322 2008 c-7 -7 -12 -22 -12 -34 0 -14 -12 -31 -30 -44 -17 -12
-28 -26 -25 -31 9 -13 -14 -49 -30 -49 -8 0 -15 -4 -15 -10 0 -5 5 -10 10 -10
6 0 10 -6 10 -13 0 -8 9 -22 20 -32 18 -16 23 -17 46 -5 26 14 31 58 6 52 -14
-2 -35 45 -28 63 2 7 19 15 37 19 42 8 59 23 59 51 0 30 -32 59 -48 43z"/>
<path d="M5250 2018 c0 -8 63 -124 75 -138 7 -8 29 -39 49 -68 32 -45 35 -57
30 -91 -5 -34 -3 -43 19 -63 14 -13 29 -37 33 -52 9 -35 29 -43 54 -21 25 23
25 36 0 68 -14 17 -26 23 -40 20 -15 -4 -20 0 -20 16 0 14 5 19 15 15 21 -8
30 22 17 52 -8 15 -20 24 -35 24 -18 0 -34 15 -63 58 -41 61 -134 185 -134
180z"/>
<path d="M2846 1979 c-3 -18 -1 -37 4 -44 6 -8 8 -30 4 -54 -6 -39 -5 -41 19
-41 28 0 61 36 49 54 -3 6 -8 20 -9 31 -2 11 -8 22 -13 23 -6 2 -10 11 -10 21
0 17 -18 41 -31 41 -3 0 -9 -14 -13 -31z"/>
<path d="M2711 1976 c-14 -17 -10 -46 12 -80 17 -26 39 -76 38 -86 -1 -3 -7
-5 -13 -5 -7 0 -13 -5 -13 -12 0 -6 -3 -15 -7 -19 -5 -4 -8 -1 -8 7 0 9 -7 5
-18 -9 -17 -22 -22 -23 -58 -13 -21 6 -53 24 -71 40 -17 16 -34 26 -37 23 -3
-3 -6 2 -6 10 0 9 -11 19 -25 22 -19 5 -25 13 -25 34 0 15 -5 33 -11 39 -8 8
-8 13 0 17 13 9 15 26 2 26 -10 0 -24 -38 -21 -58 1 -8 -7 -20 -17 -28 -17
-13 -17 -15 1 -29 11 -8 26 -15 33 -15 7 0 13 -4 13 -10 0 -18 33 -48 46 -43
8 3 14 -1 14 -10 0 -15 56 -41 70 -32 5 3 11 1 14 -3 3 -5 23 -9 46 -10 29 -1
40 2 40 13 0 8 7 15 15 15 8 0 19 9 25 20 6 11 16 18 21 14 15 -9 0 116 -18
144 -7 12 -19 20 -25 16 -7 -5 -9 0 -6 14 7 26 5 27 -11 8z"/>
<path d="M4915 1968 c-8 -13 -18 -40 -21 -60 -4 -20 -15 -45 -25 -54 -27 -24
-26 -102 1 -137 11 -14 20 -38 20 -53 0 -26 -1 -26 -19 -10 -16 15 -19 15 -31
1 -7 -8 -15 -35 -17 -58 -5 -37 -1 -48 21 -70 14 -14 26 -32 26 -40 0 -22 54
-67 81 -67 27 0 49 20 91 85 49 74 52 92 21 140 -16 24 -33 51 -39 61 -17 27
-44 8 -61 -42 -23 -65 8 -122 42 -78 13 17 14 17 15 2 0 -9 -11 -29 -24 -45
l-24 -28 -22 38 c-18 30 -25 35 -40 27 -22 -12 -30 -4 -30 29 0 24 1 24 15 5
14 -18 16 -18 29 -1 20 26 30 121 15 148 -11 21 -13 21 -24 6 -7 -9 -15 -17
-19 -17 -11 0 -6 37 7 49 8 6 19 29 26 50 13 45 27 59 44 42 8 -8 7 -19 -6
-40 -21 -35 -22 -61 -3 -87 14 -18 16 -18 32 -2 10 9 19 38 22 67 4 46 1 57
-32 106 -20 30 -40 55 -46 55 -5 0 -16 -10 -25 -22z"/>
<path d="M2589 1954 l-26 -25 19 -42 c40 -88 43 -92 68 -92 20 0 26 6 28 30 3
34 -40 92 -64 87 -8 -2 -14 0 -14 3 0 11 23 50 34 57 7 5 6 8 -4 8 -9 0 -27
-12 -41 -26z"/>
<path d="M4270 1960 c-13 -8 -13 -10 2 -10 9 0 20 5 23 10 8 13 -5 13 -25 0z"/>
<path d="M5170 1956 c0 -9 7 -30 15 -46 8 -15 18 -54 21 -84 6 -47 12 -60 36
-77 27 -20 30 -20 47 -5 23 21 34 20 56 -4 10 -11 22 -17 26 -14 20 12 6 42
-42 94 l-51 55 4 -34 c1 -19 -1 -35 -7 -37 -13 -4 -61 75 -70 114 -7 36 -35
65 -35 38z"/>
<path d="M5380 1962 c0 -5 14 -19 32 -32 l31 -23 -19 26 c-19 27 -44 43 -44
29z"/>
<path d="M2780 1892 c0 -44 8 -72 20 -72 13 0 6 103 -7 108 -9 2 -13 -9 -13
-36z"/>
<path d="M4403 1918 c-20 -24 -35 -96 -24 -117 12 -21 87 -39 102 -24 13 13
16 120 4 132 -18 18 -70 24 -82 9z m67 -73 c0 -19 -15 -26 -35 -19 -15 6 -15
8 1 25 18 20 34 17 34 -6z"/>
<path d="M2290 1905 c-8 -9 -8 -15 -2 -15 12 0 26 19 19 26 -2 2 -10 -2 -17
-11z"/>
<path d="M4712 1895 c-17 -36 -15 -100 3 -115 21 -18 35 -3 35 37 0 20 3 33 8
29 9 -9 10 -166 1 -166 -4 0 -12 7 -19 15 -7 8 -18 15 -25 15 -7 0 -20 11 -29
25 -16 24 -115 79 -126 69 -12 -12 -2 -103 16 -149 l20 -50 71 3 c47 3 78 -1
92 -10 18 -11 23 -11 30 1 16 26 25 235 11 262 -33 63 -69 76 -88 34z m-60
-189 c13 -18 9 -46 -6 -46 -8 0 -24 8 -36 18 -17 13 -21 24 -16 40 6 19 10 20
29 10 12 -6 25 -16 29 -22z"/>
<path d="M5066 1898 c-8 -13 -17 -53 -21 -90 -6 -59 -4 -72 19 -122 15 -31 33
-56 40 -56 8 0 21 19 31 43 9 23 24 50 32 59 11 12 14 30 10 60 -7 59 -18 101
-30 116 -16 21 -65 15 -81 -10z m74 -49 c0 -27 -32 -119 -42 -119 -11 0 -4
102 8 121 8 13 34 11 34 -2z"/>
<path d="M5399 1872 c13 -25 40 -46 48 -39 6 6 -42 57 -53 57 -3 0 0 -8 5 -18z"/>
<path d="M2280 1858 c0 -9 5 -20 11 -23 17 -11 18 -2 3 19 -12 17 -14 17 -14
4z"/>
<path d="M5487 1851 c-26 -6 -27 -7 -12 -28 19 -26 53 -30 62 -7 9 23 -18 42
-50 35z"/>
<path d="M3702 1797 c-11 -30 -12 -30 -27 -12 -15 19 -15 18 -10 -19 7 -48 12
-56 34 -56 22 0 51 -30 51 -53 0 -9 4 -17 9 -17 12 0 20 60 9 66 -5 4 -7 12
-4 20 3 8 -1 14 -11 14 -15 0 -15 2 0 18 22 24 21 32 -3 32 -12 0 -17 5 -14
14 3 7 -1 16 -9 19 -8 3 -18 -6 -25 -26z"/>
<path d="M2800 1790 c0 -5 7 -10 16 -10 8 0 12 5 9 10 -3 6 -10 10 -16 10 -5
0 -9 -4 -9 -10z"/>
<path d="M2906 1783 c-4 -9 -2 -21 4 -27 7 -7 10 -7 10 1 0 6 7 14 16 17 8 3
12 2 9 -4 -3 -6 -1 -10 4 -10 6 0 11 9 11 20 0 25 -45 28 -54 3z"/>
<path d="M4085 1764 c-22 -14 -51 -30 -65 -35 -19 -8 -21 -12 -10 -19 10 -6
20 -4 31 6 21 19 69 9 69 -15 0 -9 -24 -40 -52 -67 -29 -28 -65 -66 -80 -85
l-27 -34 40 -3 40 -3 -26 -21 c-21 -16 -24 -23 -14 -35 12 -14 47 -13 100 3
14 4 59 95 59 120 0 5 9 27 20 49 11 22 20 51 20 65 0 25 -44 100 -58 100 -4
0 -25 -12 -47 -26z"/>
<path d="M5566 1752 c-2 -4 -1 -14 5 -22 12 -20 11 -30 -1 -30 -6 0 -15 12
-20 26 -12 31 -36 26 -32 -7 5 -48 72 -107 72 -65 0 9 5 25 12 35 9 15 9 25 0
45 -12 26 -26 33 -36 18z"/>
<path d="M1967 1743 c-13 -13 -7 -32 8 -27 8 4 15 12 15 20 0 15 -12 19 -23 7z"/>
<path d="M1776 1720 c-10 -11 -16 -26 -12 -35 5 -14 8 -14 36 0 17 9 36 13 43
9 7 -4 1 5 -12 19 -29 32 -30 32 -55 7z"/>
<path d="M5175 1688 c-30 -43 -147 -243 -162 -277 -19 -45 -3 -113 41 -164 27
-32 38 -38 75 -40 56 -2 64 10 86 129 21 107 15 147 -22 152 -33 5 -78 -67
-69 -109 3 -18 14 -38 24 -45 20 -14 11 -29 -13 -20 -16 6 -19 12 -29 59 -4
15 -13 27 -21 27 -24 0 -17 20 10 30 14 5 28 18 32 27 3 10 20 32 37 49 69 69
97 140 72 179 -20 31 -40 32 -61 3z"/>
<path d="M5288 1679 c-10 -5 -18 -21 -18 -34 0 -13 -11 -36 -24 -52 -31 -37
-40 -68 -26 -93 26 -49 90 2 90 71 0 28 4 39 15 39 11 0 15 -11 15 -36 0 -23
10 -51 28 -78 27 -41 27 -42 14 -103 -8 -35 -18 -63 -24 -63 -6 0 -7 9 -3 23
17 52 15 83 -4 115 -24 38 -42 40 -71 10 -23 -25 -24 -28 -40 -144 -20 -138 2
-162 112 -119 76 30 88 46 88 117 0 23 7 68 16 100 16 55 16 61 -1 98 -10 22
-21 40 -25 40 -4 0 -17 19 -29 43 -12 23 -35 50 -52 60 -35 20 -38 20 -61 6z
m31 -338 c12 -8 12 -12 2 -25 -19 -23 -31 -20 -31 9 0 27 6 30 29 16z"/>
<path d="M5650 1681 c0 -5 11 -23 25 -38 22 -25 24 -26 24 -8 0 11 -11 28 -24
38 -14 10 -25 13 -25 8z"/>
<path d="M1985 1659 c5 -14 2 -25 -6 -30 -12 -8 -12 -10 0 -18 20 -13 38 -3
43 24 5 26 -8 45 -30 45 -9 0 -11 -7 -7 -21z"/>
<path d="M3960 1670 c0 -5 9 -10 20 -10 11 0 20 5 20 10 0 6 -9 10 -20 10 -11
0 -20 -4 -20 -10z"/>
<path d="M1887 1659 c7 -7 15 -10 18 -7 3 3 -2 9 -12 12 -14 6 -15 5 -6 -5z"/>
<path d="M1730 1629 c0 -6 -9 -9 -19 -6 -14 3 -18 1 -14 -10 3 -8 11 -12 19
-9 7 3 25 -8 41 -23 27 -27 93 -50 93 -32 0 5 -15 19 -33 30 -18 11 -42 29
-52 41 -20 22 -35 26 -35 9z"/>
<path d="M5624 1626 c-6 -15 50 -141 69 -153 4 -2 7 19 7 46 0 28 -4 51 -10
51 -5 0 -10 -6 -11 -12 0 -7 -7 5 -15 27 -18 50 -31 64 -40 41z"/>
<path d="M3175 1610 c3 -5 8 -10 11 -10 2 0 4 5 4 10 0 6 -5 10 -11 10 -5 0
-7 -4 -4 -10z"/>
<path d="M1918 1560 c3 -22 10 -30 24 -30 11 0 16 5 13 10 -4 6 -1 17 5 25 10
12 9 15 -3 15 -8 0 -22 2 -30 5 -10 5 -13 -1 -9 -25z"/>
<path d="M5557 1583 c-4 -3 -7 -14 -7 -22 0 -9 -10 -21 -22 -26 -12 -6 -25
-21 -28 -35 -20 -71 -30 -123 -36 -183 l-7 -67 47 -20 c63 -27 117 -26 161 3
36 23 49 67 21 67 -8 0 -36 20 -63 45 -26 25 -51 45 -55 45 -4 0 -12 -16 -19
-34 -14 -38 -29 -39 -29 -2 0 12 11 32 26 45 22 19 24 27 19 65 -5 28 -3 46 4
50 7 5 11 -2 11 -17 0 -38 20 -86 38 -92 10 -3 28 -21 42 -40 14 -19 28 -35
33 -35 16 0 7 77 -12 94 -10 9 -34 47 -52 84 -39 77 -54 93 -72 75z"/>
<path d="M3812 1569 c3 -8 9 -14 15 -14 5 0 17 -8 26 -17 18 -17 74 -34 84
-24 3 3 -2 12 -11 21 -9 9 -16 23 -16 31 0 8 -4 14 -10 14 -5 0 -10 -7 -10
-15 0 -16 -16 -21 -22 -6 -1 5 -16 13 -32 17 -22 5 -28 4 -24 -7z"/>
<path d="M2126 1541 c-7 -11 3 -41 14 -41 4 0 13 6 19 14 10 12 8 17 -8 25
-11 7 -22 7 -25 2z"/>
<path d="M3186 1501 c-4 -7 -5 -15 -2 -18 9 -9 19 4 14 18 -4 11 -6 11 -12 0z"/>
<path d="M5405 1180 c-10 -11 -30 -20 -45 -20 -30 0 -50 -16 -50 -41 0 -11
-11 -20 -31 -24 -37 -8 -43 -4 -43 38 l-1 32 -75 0 c-64 0 -78 -3 -97 -22 -13
-12 -23 -34 -23 -49 0 -25 2 -26 35 -20 21 4 42 2 54 -6 16 -10 23 -10 33 0
19 19 27 15 42 -23 13 -29 20 -35 46 -35 38 0 85 23 94 46 6 16 8 16 20 -1 9
-13 20 -16 39 -11 27 6 27 6 27 -44 0 -28 -6 -65 -14 -83 -13 -33 -15 -71 -3
-84 4 -3 20 2 35 14 15 11 52 23 82 26 30 4 67 16 82 27 22 16 28 17 28 6 0
-14 36 -46 52 -46 5 0 8 39 8 86 l0 87 -57 -8 c-143 -18 -143 -18 -143 10 0
30 3 30 36 8 24 -15 29 -15 79 2 29 10 61 15 69 12 14 -5 16 4 16 58 l0 65
-27 -11 c-15 -5 -38 -7 -51 -4 -14 3 -34 0 -48 -10 -22 -14 -26 -14 -65 15
-49 35 -79 38 -104 10z m60 -80 c3 -5 -1 -10 -9 -10 -9 0 -16 5 -16 10 0 6 4
10 9 10 6 0 13 -4 16 -10z"/>
<path d="M80 105 c-20 -53 -6 -89 42 -100 43 -11 53 22 24 76 -27 53 -52 61
-66 24z"/>
<path d="M1843 29 c-24 -24 -13 -29 59 -29 66 0 71 1 56 16 -21 21 -99 30
-115 13z"/>
</g>
</svg>
